<svg xmlns="http://www.w3.org/2000/svg" width="1422.36" height="204.714" viewBox="0 0 1422.36 204.714">
  <g id="Groupe_3" data-name="Groupe 3" transform="translate(-264.64 -370.473)">
    <g id="Groupe_2" data-name="Groupe 2" transform="translate(267.14 373)">
      <path id="Tracé_19" data-name="Tracé 19" d="M0,0H121.327V120.587H0Z" transform="translate(61.258 142.106) rotate(-71.877)" fill="#e0e0e0"/>
      <path id="Tracé_20" data-name="Tracé 20" d="M0,0H121.327V120.587H0Z" transform="translate(61.258 142.106) rotate(-71.877)" fill="none" stroke="#45413c" stroke-linecap="round" stroke-linejoin="round" stroke-width="5"/>
      <path id="Tracé_21" data-name="Tracé 21" d="M0,0H121.327V120.587H0Z" transform="translate(38.336 134.602) rotate(-71.877)" fill="#fff"/>
      <path id="Tracé_22" data-name="Tracé 22" d="M0,0H107.929V120.587H0Z" transform="translate(42.505 121.866) rotate(-71.877)" fill="#f0f0f0"/>
      <path id="Tracé_23" data-name="Tracé 23" d="M0,0H121.327V120.587H0Z" transform="translate(38.336 134.602) rotate(-71.877)" fill="none" stroke="#45413c" stroke-linecap="round" stroke-linejoin="round" stroke-width="5"/>
      <path id="Tracé_24" data-name="Tracé 24" d="M233.718,218.244a48.238,48.238,0,0,1-60.845,30.839L58.27,211.57a48.235,48.235,0,0,0,60.845-30.836l14.241-43.517a3.19,3.19,0,0,1,4.026-2.038L245.923,170.7a3.19,3.19,0,0,1,2.039,4.026Z" transform="translate(-58.27 -114.895)" fill="#fff" stroke="#45413c" stroke-linecap="round" stroke-linejoin="round" stroke-width="5"/>
      <path id="Tracé_25" data-name="Tracé 25" d="M224.5,103.989A25.263,25.263,0,0,0,197,117.155a24.969,24.969,0,0,0,.179,23.144,3.34,3.34,0,1,0,5.893-3.146,18.426,18.426,0,1,1,33.815-2.855,17.421,17.421,0,0,1-2.61,5.069l6.623,2.166a23.927,23.927,0,0,0,2.354-5.149,25.122,25.122,0,0,0-18.752-32.4Z" transform="translate(-107.488 -103.477)" fill="#fff48c" stroke="#45413c" stroke-width="5"/>
      <path id="Tracé_26" data-name="Tracé 26" d="M279.384,121.95a25.269,25.269,0,0,0-27.5,13.169,24.969,24.969,0,0,0,.179,23.144,3.34,3.34,0,1,0,5.893-3.146,18.426,18.426,0,1,1,33.815-2.855,17.422,17.422,0,0,1-2.61,5.069l6.623,2.166a23.874,23.874,0,0,0,2.354-5.152,25.125,25.125,0,0,0-18.752-32.4Z" transform="translate(-127.355 -109.979)" fill="#fff48c" stroke="#45413c" stroke-width="5"/>
      <path id="Tracé_27" data-name="Tracé 27" d="M334.269,139.915a25.269,25.269,0,0,0-27.5,13.169,24.969,24.969,0,0,0,.179,23.144,3.343,3.343,0,1,0,5.892-3.149,18.426,18.426,0,1,1,33.815-2.852,17.36,17.36,0,0,1-2.61,5.066l6.623,2.169a23.942,23.942,0,0,0,2.354-5.152,25.125,25.125,0,0,0-18.752-32.4Z" transform="translate(-147.222 -116.481)" fill="#fff48c" stroke="#45413c" stroke-width="5"/>
      <path id="Tracé_28" data-name="Tracé 28" d="M160.69,406.069c0,3.7,24.745,6.7,55.269,6.7s55.269-3,55.269-6.7-24.745-6.7-55.269-6.7S160.69,402.369,160.69,406.069Z" transform="translate(-95.343 -210.582)" fill="#45413c" opacity="0.15"/>
      <path id="Tracé_29" data-name="Tracé 29" d="M230.835,213.68l1.809,3.634a4.9,4.9,0,0,0,6.572,2.2l3.634-1.806a4.906,4.906,0,0,1,6.575,2.2l1.809,3.634a4.9,4.9,0,0,0,6.572,2.2l3.634-1.809a4.9,4.9,0,0,1,6.575,2.2l1.809,3.634" transform="translate(-120.734 -143.367)" fill="none" stroke="#45413c" stroke-linecap="round" stroke-linejoin="round" stroke-width="5"/>
      <path id="Tracé_30" data-name="Tracé 30" d="M191.1,200.19l2.954,5.535,16.088-10.02" transform="translate(-106.349 -136.861)" fill="none" stroke="#ff6242" stroke-linecap="round" stroke-linejoin="round" stroke-width="7.5"/>
      <path id="Tracé_31" data-name="Tracé 31" d="M205.325,259.07l1.707,3.688a4.9,4.9,0,0,0,6.5,2.4l3.688-1.7a4.906,4.906,0,0,1,6.5,2.405l1.694,3.685a4.9,4.9,0,0,0,6.5,2.405l3.685-1.7a4.9,4.9,0,0,1,6.5,2.4l1.7,3.688" transform="translate(-111.5 -159.797)" fill="none" stroke="#45413c" stroke-linecap="round" stroke-linejoin="round" stroke-width="5"/>
      <path id="Tracé_32" data-name="Tracé 32" d="M165.94,244.7l2.785,5.624,16.385-9.523" transform="translate(-97.244 -153.184)" fill="none" stroke="#ff6242" stroke-linecap="round" stroke-linejoin="round" stroke-width="7.5"/>
    </g>
    <text id="Not_Another_TO_DO" data-name="Not Another TO DO" transform="translate(532 516)" fill="#b8b8b8" font-size="120" font-family="Poppins-Black, Poppins" font-weight="800"><tspan x="0" y="0">Not </tspan><tspan y="0" fill="#69d2c7">Another</tspan><tspan y="0" fill="#ff6242"> </tspan><tspan y="0">TO DO</tspan></text>
  </g>
</svg>
