<svg viewBox="0 0 500 500" xmlns="http://www.w3.org/2000/svg"><g transform="matrix(5,0,0,5,0,0)"><path d="M10.000 49.285 A40.000 40.000 0 1 0 90.000 49.285 A40.000 40.000 0 1 0 10.000 49.285 Z" fill="#507285" stroke="#daedf7"></path><path d="M77.686,70.429H44.419c-1.6,0-2.893.717-2.893,1.6s1.295,1.6,2.893,1.6h1.446c1.6,0,2.893.717,2.893,1.6s-1.3,1.6-2.893,1.6H40.08c-3.2,0-5.786,1.434-5.786,3.2s2.59,3.2,5.786,3.2H43.4c2.312,0,3.947,1.459,3.909,3.165v.038c0,2.359,4.857,4.271,10.848,4.271S69.008,88.8,69.008,86.444a1.945,1.945,0,0,0-.363-1.1c-.657-.97.341-2.107,1.809-2.107h0c3.2,0,5.786-1.434,5.786-3.2s-2.59-3.2-5.786-3.2H69.008c-1.2,0-2.17-.478-2.17-1.067s.972-1.068,2.17-1.068h8.678c2.4,0,4.339-.956,4.339-2.135S80.083,70.429,77.686,70.429Z" fill="#80ddff" stroke="#009fd9" stroke-linecap="round" stroke-linejoin="round"></path><path d="M23.554 71.951 A26.193 2.058 0 1 0 75.940 71.951 A26.193 2.058 0 1 0 23.554 71.951 Z" fill="#45413c" opacity=".15"></path><path d="M71.071,33.437,70.1,29.568a1.193,1.193,0,0,0-1.157-.9H58.876a1.193,1.193,0,0,0-1.157.9l-.968,3.869H25.726a1.194,1.194,0,0,0-1.193,1.194V69.236a2.386,2.386,0,0,0,2.386,2.386H72.264a2.387,2.387,0,0,0,2.387-2.386V34.631a1.2,1.2,0,0,0-1.194-1.194Z" fill="#ffbe3d"></path><path d="M71.071,33.437,70.1,29.568a1.193,1.193,0,0,0-1.157-.9H58.876a1.193,1.193,0,0,0-1.157.9l-.968,3.869H25.726a1.194,1.194,0,0,0-1.193,1.194V69.236a2.386,2.386,0,0,0,2.386,2.386H72.264a2.387,2.387,0,0,0,2.387-2.386V34.631a1.2,1.2,0,0,0-1.194-1.194Z" fill="#ffc44d" stroke="#45413c" stroke-linecap="round" stroke-linejoin="round"></path><path d="M72.629,71.622H26.554A2.387,2.387,0,0,1,24.2,69.628L19.991,44.373a1.193,1.193,0,0,1,1.177-1.389H78.015a1.193,1.193,0,0,1,1.177,1.389L74.983,69.628A2.386,2.386,0,0,1,72.629,71.622Z" fill="#ffdf3d"></path><path d="M21.168,50.143H78.015a1.12,1.12,0,0,1,.208.047l.969-5.817a1.193,1.193,0,0,0-1.177-1.389H21.168a1.193,1.193,0,0,0-1.177,1.389l.97,5.817A1.11,1.11,0,0,1,21.168,50.143Z" fill="#ffef9e"></path><path d="M72.629,71.622H26.554A2.387,2.387,0,0,1,24.2,69.628L19.991,44.373a1.193,1.193,0,0,1,1.177-1.389H78.015a1.193,1.193,0,0,1,1.177,1.389L74.983,69.628A2.386,2.386,0,0,1,72.629,71.622Z" fill="none" stroke="#45413c" stroke-linecap="round" stroke-linejoin="round"></path><path d="M67.276,11.958H38.637l-8.353,8.353V42.984H68.469V13.152A1.194,1.194,0,0,0,67.276,11.958Z" fill="#ffffff"></path><path d="M67.276,11.958H38.637l-8.353,8.353V42.984H68.469V13.152A1.194,1.194,0,0,0,67.276,11.958Z" fill="none" stroke="#45413c" stroke-linecap="round" stroke-linejoin="round"></path><path d="M30.284,20.311l8.353-8.353v7.16a1.193,1.193,0,0,1-1.193,1.193Z" fill="#507285" stroke="#45413c" stroke-linecap="round" stroke-linejoin="round"></path><path d="M41.454,65.656s1.193-3.58,8.353-3.58,8.353,3.58,8.353,3.58" fill="none" stroke="#45413c" stroke-linecap="round" stroke-linejoin="round"></path><path d="M36.681 54.320 A1.790 1.790 0 1 0 40.261 54.320 A1.790 1.790 0 1 0 36.681 54.320 Z" fill="#45413c"></path><path d="M59.353 54.320 A1.790 1.790 0 1 0 62.933 54.320 A1.790 1.790 0 1 0 59.353 54.320 Z" fill="#45413c"></path><path d="M66.513,65.954a2.984,2.984,0,1,1-5.967,0c0-1.647,2.983-7.458,2.983-7.458S66.513,64.307,66.513,65.954Z" fill="#80ddff" stroke="#009fd9" stroke-linecap="round" stroke-linejoin="round"></path><path d="M54.441,35.9a2.2,2.2,0,0,1-1.571-.651l-2.764-2.765-2.765,2.765A2.222,2.222,0,1,1,44.2,32.106l2.765-2.764L44.2,26.578a2.222,2.222,0,1,1,3.142-3.143L50.106,26.2l2.764-2.764a2.222,2.222,0,1,1,3.142,3.143l-2.765,2.764,2.765,2.764A2.222,2.222,0,0,1,54.441,35.9Z" fill="#ffcabf" stroke="#e04122" stroke-linecap="round" stroke-linejoin="round"></path></g></svg>